<mxfile host="app.diagrams.net" modified="2022-03-26T23:25:57.995Z" agent="5.0 (Windows NT 10.0; Win64; x64) AppleWebKit/537.36 (KHTML, like Gecko) Chrome/99.0.4844.74 Safari/537.36" etag="LeUWFa_D25eAoBxlumr6" version="17.2.4" type="github">
  <diagram name="Page-1" id="03018318-947c-dd8e-b7a3-06fadd420f32">
    <mxGraphModel dx="1730" dy="927" grid="1" gridSize="10" guides="1" tooltips="1" connect="1" arrows="1" fold="1" page="1" pageScale="1" pageWidth="1100" pageHeight="850" background="none" math="0" shadow="0">
      <root>
        <mxCell id="0" />
        <mxCell id="1" parent="0" />
        <mxCell id="677b7b8949515195-1" value="" style="whiteSpace=wrap;html=1;rounded=0;shadow=0;labelBackgroundColor=none;strokeWidth=1;fontFamily=Verdana;fontSize=12;align=center;comic=1;fillColor=#F0FEFF;strokeColor=#6c8ebf;" parent="1" vertex="1">
          <mxGeometry x="20" y="20" width="1060" height="810" as="geometry" />
        </mxCell>
        <mxCell id="677b7b8949515195-2" value="Happy, Healthy &amp;amp; You" style="whiteSpace=wrap;html=1;rounded=0;shadow=1;labelBackgroundColor=none;strokeWidth=2;fontFamily=Comic Sans MS;fontSize=28;align=center;comic=1;fillColor=#b0e3e6;strokeColor=#0A4761;glass=1;sketch=0;fontStyle=2" parent="1" vertex="1">
          <mxGeometry x="40" y="60" width="780" height="50" as="geometry" />
        </mxCell>
        <mxCell id="677b7b8949515195-3" value="Search" style="strokeWidth=1;shadow=0;dashed=0;align=center;html=1;shape=mxgraph.mockup.forms.searchBox;strokeColor=#999999;mainText=;strokeColor2=#008cff;fontColor=#666666;fontSize=17;align=left;spacingLeft=3;rounded=0;labelBackgroundColor=none;comic=1;" parent="1" vertex="1">
          <mxGeometry x="850" y="95" width="210" height="30" as="geometry" />
        </mxCell>
        <mxCell id="677b7b8949515195-5" value="Main Page" style="text;html=1;points=[];align=left;verticalAlign=top;spacingTop=-4;fontSize=14;fontFamily=Verdana;fontStyle=1" parent="1" vertex="1">
          <mxGeometry x="870" y="40" width="60" height="20" as="geometry" />
        </mxCell>
        <mxCell id="677b7b8949515195-7" value="About Us" style="text;html=1;points=[];align=left;verticalAlign=top;spacingTop=-4;fontSize=14;fontFamily=Verdana;fontStyle=1" parent="1" vertex="1">
          <mxGeometry x="970" y="40" width="60" height="20" as="geometry" />
        </mxCell>
        <mxCell id="677b7b8949515195-8" value="" style="whiteSpace=wrap;html=1;rounded=0;shadow=0;labelBackgroundColor=none;strokeWidth=1;fillColor=none;fontFamily=Verdana;fontSize=12;align=center;comic=1;strokeColor=#0A4761;" parent="1" vertex="1">
          <mxGeometry x="30" y="230" width="200" height="590" as="geometry" />
        </mxCell>
        <mxCell id="677b7b8949515195-9" value="" style="line;strokeWidth=1;html=1;rounded=0;shadow=0;labelBackgroundColor=none;fillColor=none;fontFamily=Verdana;fontSize=14;fontColor=#000000;align=center;comic=1;" parent="1" vertex="1">
          <mxGeometry x="20" y="140" width="1060" height="10" as="geometry" />
        </mxCell>
        <mxCell id="677b7b8949515195-10" value="Welcome to Happy, Healthy &amp;amp; You! We are so excited you decided to join us on your journey to becoming a new and healthy you!&amp;nbsp;" style="whiteSpace=wrap;html=1;rounded=0;shadow=0;labelBackgroundColor=none;strokeWidth=2;fontFamily=Comic Sans MS;fontSize=15;align=center;comic=1;fontStyle=2;strokeColor=#0A4761;" parent="1" vertex="1">
          <mxGeometry x="30" y="160" width="1040" height="50" as="geometry" />
        </mxCell>
        <mxCell id="677b7b8949515195-25" value="Imagine this, a fully customized nutrition and fitness planner made&lt;br style=&quot;font-size: 12px&quot;&gt;specifically for you that helps you achieve your health goals in a way that&amp;nbsp;fits to your current lifestyle and your desired timeline. Instead of struggling&amp;nbsp;though diet fads, workout trends, and all the misinformation surrounding&amp;nbsp;nutrition and fitness, we are here to eliminate that confusion and tell you that&amp;nbsp;this isnâ€™t a one size fits all journey. So, we&#39;ve created an app that does&amp;nbsp;everything a nutritionist and personal training would do in one, and the best&lt;br style=&quot;font-size: 12px&quot;&gt;part is you can use right at home. Not only does this tool save you valuable&amp;nbsp;time and money, it actually goes even a step further than most nutrition and&amp;nbsp;fitness plans by understand you from a holistic standpoint and optimizing your&lt;br style=&quot;font-size: 12px&quot;&gt;plan based on what you tell it. Seems too good to be true, right? Well think again!&amp;nbsp;" style="rounded=0;shadow=0;labelBackgroundColor=none;strokeWidth=2;fillColor=#FFFFFF;fontFamily=Verdana;fontSize=12;align=center;comic=1;fontColor=#000000;whiteSpace=wrap;html=1;strokeColor=#0A4761;" parent="1" vertex="1">
          <mxGeometry x="840" y="230" width="230" height="400" as="geometry" />
        </mxCell>
        <mxCell id="677b7b8949515195-27" value="Introduction" style="text;html=1;points=[];align=left;verticalAlign=top;spacingTop=-4;fontSize=14;fontFamily=Verdana;fontStyle=5" parent="1" vertex="1">
          <mxGeometry x="40" y="250" width="170" height="20" as="geometry" />
        </mxCell>
        <mxCell id="677b7b8949515195-28" value="User Question #1" style="text;html=1;points=[];align=left;verticalAlign=top;spacingTop=-4;fontSize=14;fontFamily=Verdana;fontStyle=1" parent="1" vertex="1">
          <mxGeometry x="40" y="309" width="170" height="20" as="geometry" />
        </mxCell>
        <mxCell id="677b7b8949515195-29" value="User Question #2" style="text;html=1;points=[];align=left;verticalAlign=top;spacingTop=-4;fontSize=14;fontFamily=Verdana;fontStyle=1" parent="1" vertex="1">
          <mxGeometry x="40" y="368" width="170" height="20" as="geometry" />
        </mxCell>
        <mxCell id="677b7b8949515195-30" value="User Question #3" style="text;html=1;points=[];align=left;verticalAlign=top;spacingTop=-4;fontSize=14;fontFamily=Verdana;fontStyle=1" parent="1" vertex="1">
          <mxGeometry x="40" y="427" width="170" height="20" as="geometry" />
        </mxCell>
        <mxCell id="677b7b8949515195-31" value="User Question #6" style="text;html=1;points=[];align=left;verticalAlign=top;spacingTop=-4;fontSize=14;fontFamily=Verdana;fontStyle=1" parent="1" vertex="1">
          <mxGeometry x="40" y="604" width="170" height="20" as="geometry" />
        </mxCell>
        <mxCell id="677b7b8949515195-32" value="User Question #7" style="text;html=1;points=[];align=left;verticalAlign=top;spacingTop=-4;fontSize=14;fontFamily=Verdana;fontStyle=1" parent="1" vertex="1">
          <mxGeometry x="40" y="663" width="170" height="20" as="geometry" />
        </mxCell>
        <mxCell id="677b7b8949515195-33" value="User Question #8" style="text;html=1;points=[];align=left;verticalAlign=top;spacingTop=-4;fontSize=14;fontFamily=Verdana;fontStyle=1" parent="1" vertex="1">
          <mxGeometry x="40" y="722" width="170" height="20" as="geometry" />
        </mxCell>
        <mxCell id="677b7b8949515195-34" value="Results" style="text;html=1;points=[];align=left;verticalAlign=top;spacingTop=-4;fontSize=14;fontFamily=Verdana;fontStyle=1" parent="1" vertex="1">
          <mxGeometry x="40" y="781.01" width="170" height="20" as="geometry" />
        </mxCell>
        <mxCell id="677b7b8949515195-39" value="User Question #4" style="text;html=1;points=[];align=left;verticalAlign=top;spacingTop=-4;fontSize=14;fontFamily=Verdana;fontStyle=1" parent="1" vertex="1">
          <mxGeometry x="40" y="486" width="170" height="20" as="geometry" />
        </mxCell>
        <mxCell id="677b7b8949515195-40" value="User Question #5" style="text;html=1;points=[];align=left;verticalAlign=top;spacingTop=-4;fontSize=14;fontFamily=Verdana;fontStyle=1" parent="1" vertex="1">
          <mxGeometry x="40" y="545" width="170" height="20" as="geometry" />
        </mxCell>
        <mxCell id="9vx_emz_uO2FRqKHN4-O-6" value="" style="shape=image;verticalLabelPosition=bottom;labelBackgroundColor=default;verticalAlign=top;aspect=fixed;imageAspect=0;image=https://mir-s3-cdn-cf.behance.net/project_modules/max_1200/8e167a27517701.56366616d92c3.png;clipPath=inset(25.56% 55.33% 25.56% 0%);" vertex="1" parent="1">
          <mxGeometry x="840" y="650" width="230" height="151.01" as="geometry" />
        </mxCell>
      </root>
    </mxGraphModel>
  </diagram>
</mxfile>
